<?xml version="1.0" standalone="no"?>
<!DOCTYPE svg PUBLIC "-//W3C//DTD SVG 20010904//EN"
 "http://www.w3.org/TR/2001/REC-SVG-20010904/DTD/svg10.dtd">
<svg version="1.0" xmlns="http://www.w3.org/2000/svg"
 width="1024.000000pt" height="1024.000000pt" viewBox="0 0 1024.000000 1024.000000"
 preserveAspectRatio="xMidYMid meet">
<metadata>
Created by potrace 1.14, written by Peter Selinger 2001-2017
</metadata>
<g transform="translate(0.000000,1024.000000) scale(0.100000,-0.100000)"
fill="#000000" stroke="none">
<path d="M0 5120 l0 -5120 5120 0 5120 0 0 5120 0 5120 -5120 0 -5120 0 0
-5120z m1629 3156 c18 -39 4 -61 -40 -61 -31 0 -34 3 -37 31 -3 35 21 67 47
62 9 -2 22 -16 30 -32z m3777 2 c4 -12 0 -26 -9 -35 -21 -21 -67 -9 -67 16 0
47 62 62 76 19z m3044 10 c30 -33 26 -64 -11 -77 -46 -16 -73 1 -65 42 6 29
29 57 48 57 4 0 16 -10 28 -22z m-555 -18 c19 -37 19 -45 -1 -64 -33 -34 -84
-8 -84 43 0 57 59 72 85 21z m340 3 c17 -9 45 -29 63 -47 66 -61 67 -65 70
-343 l4 -253 -27 -57 c-49 -108 -93 -136 -207 -137 -72 0 -80 3 -131 37 -61
40 -98 84 -116 136 -13 40 -15 363 -2 463 10 78 44 135 106 179 65 47 170 56
240 22z m-7192 -11 c11 -10 17 -29 17 -54 0 -37 -1 -38 -38 -38 -47 0 -62 14
-62 56 0 22 7 38 22 48 22 16 30 14 61 -12z m355 13 c46 -20 77 -49 107 -100
22 -38 24 -53 30 -280 8 -259 3 -299 -41 -367 -13 -20 -45 -50 -71 -65 -41
-24 -59 -28 -123 -28 -64 0 -82 4 -123 28 -55 33 -92 83 -106 147 -7 30 -7
129 -2 280 9 249 16 286 64 339 53 57 183 80 265 46z m557 -9 c60 -28 77 -46
106 -111 21 -46 23 -69 27 -285 l4 -235 -34 -65 c-22 -44 -46 -74 -73 -93
-108 -74 -284 -26 -346 95 -19 37 -20 56 -17 307 l3 268 30 42 c66 96 192 128
300 77z m254 5 c36 -36 5 -85 -51 -79 -42 4 -50 39 -17 74 27 29 43 30 68 5z
m328 -138 c-4 -87 -10 -278 -14 -425 l-6 -268 -51 0 c-86 0 -81 -22 -79 340 1
176 0 320 -2 320 -2 0 -30 -7 -62 -15 -78 -21 -90 -19 -97 11 -10 37 0 57 36
78 18 10 58 37 88 60 47 35 64 42 120 47 36 3 67 7 69 7 2 1 1 -69 -2 -155z
m2323 140 c29 -25 25 -41 -15 -64 l-35 -21 3 -242 c2 -132 1 -299 -2 -371 l-6
-130 -52 -3 -53 -3 0 306 c0 288 -1 305 -17 297 -10 -5 -34 -12 -54 -16 -35
-6 -37 -5 -43 25 -10 52 -7 109 6 109 11 0 117 59 188 106 43 28 54 29 80 7z
m407 -22 c29 -20 61 -52 75 -75 22 -40 23 -47 23 -291 0 -215 -2 -254 -17
-281 -41 -75 -125 -124 -212 -124 -54 0 -157 49 -184 88 -42 59 -45 78 -43
312 2 250 11 308 58 352 53 49 82 58 168 56 72 -3 85 -7 132 -37z m2489 -373
c-4 -227 -9 -421 -12 -430 -4 -15 -17 -18 -64 -18 -33 0 -62 5 -66 11 -8 13
-6 565 2 618 l6 33 -54 -8 c-96 -14 -93 -15 -96 43 l-3 51 58 27 c32 14 68 35
80 47 23 22 68 35 122 37 l34 1 -7 -412z m939 150 c-1 -134 -3 -318 -4 -410
l-1 -168 -72 0 -71 0 6 315 c3 173 2 315 -1 315 -4 0 -31 -7 -60 -14 -46 -13
-54 -13 -59 0 -9 25 5 88 23 99 10 6 45 28 78 51 74 49 81 52 128 53 l36 1 -3
-242z m257 210 l51 -22 -7 -245 c-3 -135 -11 -273 -17 -306 -6 -33 -10 -67 -9
-75 1 -8 2 -44 3 -80 l2 -65 -57 -3 -58 -3 0 47 c0 28 8 61 21 83 l21 38 -21
34 c-19 32 -21 49 -21 243 0 194 -1 208 -17 201 -49 -18 -71 -17 -83 4 -11 22
-6 96 10 120 7 12 100 50 123 51 5 0 31 -10 59 -22z m-6688 -301 c11 -31 4
-41 -37 -51 -25 -6 -29 -3 -43 29 -19 45 -11 57 34 53 30 -2 38 -8 46 -31z
m3237 -67 c42 -23 11 -110 -40 -110 -36 0 -51 17 -51 56 0 50 46 77 91 54z
m-3253 -16 c26 -18 29 -56 6 -78 -19 -20 -23 -20 -46 1 -10 9 -18 30 -18 48 0
48 18 58 58 29z m406 -30 c22 -21 20 -51 -4 -76 l-20 -22 -25 24 c-31 29 -32
54 -3 74 28 20 33 20 52 0z m1953 -6 c29 -27 29 -45 1 -75 -27 -29 -62 -29
-82 -1 -22 32 -20 64 6 82 30 21 47 20 75 -6z m4238 -93 c9 -91 4 -105 -33
-105 -45 0 -56 20 -48 92 8 71 18 88 51 88 22 0 24 -6 30 -75z m-345 19 c12
-32 3 -94 -15 -101 -8 -2 -23 0 -34 7 -26 13 -28 65 -5 98 20 29 42 28 54 -4z
m-1005 -6 c30 -13 34 -52 8 -80 -22 -25 -79 -24 -93 1 -17 33 -11 50 23 71 38
24 30 23 62 8z m-1967 -48 c48 -30 65 -79 60 -169 -5 -70 -7 -76 -41 -108 -49
-44 -83 -44 -127 2 -32 33 -35 41 -38 111 -5 86 7 123 50 159 36 30 53 31 96
5z m-3271 -26 c3 -9 -1 -23 -10 -31 -15 -15 -20 -15 -57 2 -48 22 -51 41 -7
53 35 10 65 0 74 -24z m2301 -27 c20 -24 25 -67 9 -85 -12 -14 -13 -26 -4 -70
14 -69 4 -87 -49 -86 -43 2 -66 26 -62 64 2 20 11 27 40 34 20 5 39 16 41 25
5 23 -20 68 -44 81 -20 11 -20 12 -3 31 20 22 57 25 72 6z m-2316 -88 c24 -13
23 -38 -4 -66 -28 -30 -63 -29 -94 2 -26 26 -26 60 0 78 12 8 72 0 98 -14z
m468 -22 c13 -24 13 -28 -6 -54 -36 -49 -104 -40 -104 14 0 26 17 64 33 74 18
12 62 -7 77 -34z m5754 2 c38 -30 31 -59 -18 -83 l-39 -19 -19 23 c-22 27 -23
63 -2 84 21 22 46 20 78 -5z m-3528 -13 c14 -58 -24 -91 -63 -55 -39 38 -24
79 29 79 21 0 29 -6 34 -24z m2556 0 c4 -6 8 -28 8 -48 0 -29 -6 -41 -25 -54
-74 -48 -126 59 -53 110 23 16 57 13 70 -8z m381 -1 c19 -18 27 -36 27 -59 0
-37 -12 -46 -61 -46 -28 0 -29 1 -29 53 0 46 12 77 30 77 3 0 18 -11 33 -25z
m-2661 -100 c37 -28 96 -130 103 -180 4 -22 5 -122 3 -221 l-3 -180 -34 -52
c-45 -71 -93 -96 -186 -96 -79 0 -118 16 -159 65 -60 71 -61 77 -61 304 0 116
4 223 8 238 10 36 83 116 122 134 46 20 173 13 207 -12z m158 -9 c0 -7 9 -21
20 -31 19 -17 19 -19 4 -37 -22 -24 -39 -23 -58 4 -20 29 -20 52 0 72 17 17
34 13 34 -8z m-3125 -143 c0 -76 2 -235 5 -353 l5 -215 -51 -3 c-65 -4 -64 -7
-64 203 0 88 -3 196 -6 240 l-7 80 -48 -3 -49 -4 0 39 c0 36 6 45 52 84 68 59
87 68 128 69 l35 0 0 -137z m6448 121 c9 -3 35 -31 59 -61 l42 -55 9 -152 c11
-190 5 -282 -21 -332 -79 -154 -276 -168 -359 -26 l-28 47 1 210 c0 132 5 223
13 246 14 42 86 116 127 129 29 10 127 6 157 -6z m-6001 -26 c20 -15 46 -48
58 -73 21 -43 22 -56 19 -239 -4 -191 -4 -193 -34 -252 -38 -74 -73 -94 -165
-94 -83 1 -126 22 -166 81 -34 51 -44 120 -44 283 1 140 15 214 47 255 46 57
85 73 174 69 64 -3 81 -7 111 -30z m2086 -285 l-3 -318 -57 -3 -58 -3 -2 48
c-1 26 0 128 2 227 l3 179 -36 -7 c-35 -7 -67 11 -67 37 0 25 142 143 180 150
14 2 28 5 33 6 4 0 6 -142 5 -316z m3302 -48 l0 -365 -59 0 c-58 0 -59 1 -65
31 -3 17 -6 136 -6 264 l0 232 -52 -18 c-84 -29 -88 -27 -88 34 0 50 2 54 33
69 17 8 57 36 87 61 56 46 74 54 123 56 l27 1 0 -365z m-6772 315 c38 -57 11
-130 -48 -130 -40 0 -70 29 -77 74 -6 36 -3 42 28 68 42 36 67 33 97 -12z
m340 3 c76 -62 76 -62 83 -286 3 -111 2 -217 -3 -234 -13 -50 -69 -116 -110
-131 -75 -29 -166 5 -215 79 l-28 43 0 200 c1 124 6 217 13 241 32 110 174
157 260 88z m705 5 c20 -42 7 -68 -33 -68 -27 0 -30 3 -30 31 0 37 16 69 34
69 7 0 20 -14 29 -32z m5374 -140 c-4 -95 -7 -260 -7 -366 l0 -193 -57 3 -58
3 -3 272 -2 272 -43 -18 c-24 -10 -57 -22 -75 -26 -32 -7 -32 -6 -32 34 0 58
16 86 79 134 66 50 79 55 150 56 l54 1 -6 -172z m597 126 c3 -26 6 -109 6
-185 l0 -139 -34 0 c-22 0 -36 6 -40 16 -3 9 -6 73 -6 143 0 70 -3 131 -6 134
-4 4 -14 -8 -23 -26 -12 -25 -23 -33 -49 -35 -29 -3 -34 0 -48 34 -30 71 16
109 74 63 l27 -20 9 20 c8 18 44 38 72 40 6 1 14 -20 18 -45z m-6514 -9 c-22
-36 -40 -38 -40 -5 0 16 25 35 43 32 4 -1 7 3 7 10 0 6 3 9 6 5 4 -3 -4 -22
-16 -42z m7101 24 c33 -23 37 -53 12 -81 -32 -36 -103 -11 -103 35 0 21 36 67
53 67 5 0 22 -9 38 -21z m-6994 -26 c13 -32 15 -63 9 -193 -4 -85 -8 -185 -9
-222 -1 -36 -5 -70 -10 -74 -13 -14 -82 10 -85 29 -7 36 8 85 27 90 17 4 18
10 9 53 -5 27 -8 81 -6 119 1 53 -1 69 -11 67 -21 -5 -49 8 -55 25 -4 10 11
34 44 69 27 29 50 58 50 63 0 25 22 8 37 -26z m2603 -254 l0 -270 -42 3 -43 3
-3 188 c-3 203 0 195 -62 177 -40 -11 -54 1 -44 40 12 52 115 130 172 130 l22
0 0 -271z m1097 260 c42 -15 92 -68 103 -109 12 -41 12 -304 1 -371 -8 -51
-38 -94 -90 -130 -27 -19 -48 -24 -92 -24 -50 0 -62 4 -90 30 -54 51 -59 75
-59 285 0 216 4 235 69 293 34 31 48 37 85 37 25 0 57 -5 73 -11z m-4310 -231
c40 -38 22 -108 -27 -108 -38 0 -53 67 -24 108 19 27 22 27 51 0z m735 -150
c7 -39 -6 -73 -27 -73 -14 0 -21 8 -23 27 -6 53 40 96 50 46z m2321 -58 c6
-52 -5 -99 -26 -112 -24 -15 -76 -9 -87 11 -27 51 3 89 42 55 20 -19 21 -19
14 4 -6 19 -4 22 16 20 21 -3 23 1 21 35 -3 55 13 45 20 -13z m3045 26 c12
-11 11 -18 -2 -43 -17 -34 -41 -44 -74 -32 -42 16 -52 97 -11 86 11 -3 19 -1
19 5 0 13 51 1 68 -16z m859 -11 c28 -12 32 -17 24 -37 -6 -17 -16 -23 -37
-22 -15 0 -36 -8 -45 -17 -13 -13 -25 -16 -46 -10 -39 10 -43 52 -8 87 28 28
43 28 112 -1z m-3649 -42 c4 -28 -22 -31 -50 -6 -27 24 -22 35 15 31 24 -2 33
-8 35 -25z m3208 2 c-2 -7 1 -16 8 -18 15 -6 42 -159 32 -176 -4 -6 -20 -11
-36 -11 -24 0 -31 5 -36 26 -7 29 2 179 11 195 9 14 27 0 21 -16z m-5481 -96
c8 -33 -4 -49 -37 -49 -19 0 -24 32 -12 64 11 28 42 19 49 -15z m551 6 c30
-31 28 -51 -8 -78 l-28 -21 -27 21 c-31 22 -41 66 -22 89 18 22 57 17 85 -11z
m2942 -23 c3 -27 -1 -34 -24 -42 -32 -13 -54 2 -54 36 0 26 25 45 55 41 15 -1
21 -11 23 -35z m2490 26 c19 -19 15 -82 -8 -103 -32 -29 -50 -13 -50 44 0 37
5 53 18 60 22 13 26 13 40 -1z m-962 -15 c13 -17 13 -17 14 0 0 22 36 23 44 1
16 -41 -11 -83 -62 -99 -41 -12 -104 79 -75 108 13 14 66 7 79 -10z m838 -14
c3 -17 6 -47 6 -65 0 -28 -4 -34 -21 -34 -11 0 -29 5 -41 11 -17 9 -19 17 -13
57 9 59 11 62 39 62 18 0 25 -7 30 -31z m-6291 -12 c10 -4 17 -17 17 -31 0
-22 -6 -26 -44 -31 -53 -8 -66 -2 -66 30 0 32 50 72 65 53 5 -8 18 -17 28 -21z
m2667 -30 c33 -17 50 -35 70 -72 24 -48 25 -56 24 -230 -1 -259 -21 -325 -114
-390 -39 -27 -51 -30 -112 -28 -82 2 -130 23 -172 76 -28 36 -31 46 -34 125
-2 48 1 164 6 258 11 220 19 239 112 272 78 27 151 23 220 -11z m280 -32 c25
-13 30 -22 30 -50 0 -47 -34 -69 -96 -62 -25 2 -48 7 -51 10 -8 9 4 48 27 85
22 36 45 40 90 17z m577 -10 c24 -17 35 -59 19 -80 -6 -8 -25 -18 -42 -21 -25
-5 -37 -1 -53 15 -28 28 -26 55 5 80 32 25 43 26 71 6z m-2606 -32 c26 -12 59
-37 75 -59 l29 -37 0 -216 c0 -152 -4 -227 -13 -253 -17 -47 -93 -118 -129
-119 -61 -3 -110 4 -144 22 -48 24 -107 94 -115 135 -11 58 2 406 17 448 7 22
28 55 46 74 l33 35 77 -5 c48 -3 96 -13 124 -25z m-539 -120 c4 -76 2 -192 -2
-258 -5 -66 -9 -162 -9 -213 l-1 -92 -42 6 c-24 4 -47 11 -53 16 -6 5 -12 114
-15 266 l-5 257 -66 -3 c-72 -4 -81 2 -72 51 7 36 53 79 100 94 21 6 65 12 99
12 l61 1 5 -137z m3453 121 c12 -12 14 -24 8 -43 -4 -14 -6 -160 -4 -323 l4
-298 -60 0 -60 0 -6 68 c-4 37 -7 128 -7 202 0 74 -3 158 -6 186 l-6 50 -50
-13 c-28 -7 -55 -10 -59 -7 -11 6 -12 95 -1 110 4 6 30 27 57 47 45 33 57 37
112 37 44 0 66 -5 78 -16z m-4271 -10 c31 -30 7 -94 -35 -94 -20 0 -61 48 -56
64 3 10 55 44 69 45 4 1 14 -6 22 -15z m299 -5 c38 -17 85 -91 93 -147 10 -65
-3 -350 -17 -392 -32 -94 -92 -135 -182 -127 -66 6 -99 25 -135 77 -39 57 -45
103 -38 275 7 164 22 246 53 284 39 47 154 63 226 30z m689 4 c38 -34 7 -103
-46 -103 -26 0 -56 33 -56 60 0 50 64 78 102 43z m2818 -4 c18 -33 35 -445 21
-496 -17 -62 -55 -103 -96 -103 -51 0 -48 -24 -39 281 4 139 3 178 -8 186 -7
6 -38 13 -68 15 -54 3 -55 2 -73 -32 -15 -30 -17 -55 -14 -170 3 -115 7 -143
27 -187 22 -49 23 -52 6 -78 -13 -20 -22 -24 -39 -20 -40 12 -72 40 -95 86
-22 42 -23 51 -19 229 5 254 8 262 137 304 8 2 68 5 132 5 109 1 118 -1 128
-20z m-3315 -23 c13 -19 14 -29 6 -45 -14 -25 -48 -36 -66 -21 -15 13 -21 71
-8 83 15 16 53 6 68 -17z m5497 -17 c-1 -19 -5 -152 -8 -296 l-6 -263 -49 0
-49 0 0 220 c0 121 -2 220 -5 220 -2 0 -25 -10 -50 -22 -40 -19 -47 -20 -56
-8 -5 8 -7 31 -4 50 9 55 84 113 168 129 57 12 62 9 59 -30z m1043 23 c17 -10
43 -42 59 -71 26 -49 29 -63 33 -195 7 -167 -5 -231 -49 -282 -33 -38 -79 -54
-155 -54 -63 0 -107 32 -123 88 -14 51 -13 370 1 413 33 99 153 150 234 101z
m-781 -64 c3 -40 4 -176 3 -303 l-2 -230 -40 -3 c-63 -5 -65 3 -65 236 l0 203
-22 -7 c-42 -14 -72 -10 -76 9 -8 38 9 64 70 107 116 83 125 82 132 -12z m314
-230 l-3 -303 -57 -3 c-55 -3 -58 -2 -59 20 0 13 0 117 1 231 1 196 0 208 -17
204 -10 -3 -37 -9 -60 -12 l-43 -7 0 41 c0 22 6 45 13 51 83 70 102 79 165 79
l62 1 -2 -302z m642 266 c23 -20 30 -34 28 -53 -3 -24 -7 -26 -55 -29 -53 -3
-53 -3 -53 27 0 38 19 81 36 81 7 0 27 -12 44 -26z m-495 -28 c17 -12 18 -29
16 -247 -1 -129 -5 -244 -8 -256 -3 -16 -13 -23 -29 -23 l-24 0 -2 153 c-2 83
-3 181 -3 216 0 41 -4 66 -12 68 -18 7 -28 70 -13 88 16 19 50 19 75 1z
m-5721 -134 c8 -29 6 -36 -18 -60 -26 -26 -27 -27 -42 -8 -19 26 -18 71 2 91
24 24 47 14 58 -23z m2363 10 c23 -28 -10 -102 -45 -102 -39 0 -60 99 -24 119
21 12 53 5 69 -17z m-2845 -19 c9 -10 21 -29 28 -42 11 -22 10 -27 -14 -48
-33 -28 -52 -29 -66 -4 -11 22 -13 71 -4 95 8 21 37 20 56 -1z m2200 -10 c10
-9 18 -24 18 -34 0 -25 -39 -59 -66 -59 -25 0 -64 43 -64 71 0 37 78 53 112
22z m1766 -5 c35 -35 -8 -99 -55 -82 -14 5 -31 17 -37 27 -9 15 -6 23 17 43
31 26 56 31 75 12z m-474 -36 c14 -16 15 -29 7 -85 -11 -80 -15 -87 -48 -87
-23 0 -25 3 -20 28 3 15 8 34 12 43 5 12 -2 19 -24 27 -24 8 -31 17 -31 36 0
48 71 74 104 38z m1730 -74 c12 -16 14 -40 10 -102 -9 -144 -10 -148 -47 -144
-30 3 -32 6 -34 43 -2 22 -8 70 -14 107 -13 73 -7 91 36 108 30 13 32 12 49
-12z m-4744 -47 c14 -28 12 -61 -4 -61 -7 0 -28 -3 -45 -6 -28 -6 -31 -4 -31
19 0 16 10 33 28 46 34 25 39 26 52 2z m-454 -16 c15 -23 15 -26 -6 -55 -12
-17 -29 -30 -38 -28 -20 4 -36 52 -28 83 9 34 50 34 72 0z m3972 13 c19 -19
14 -65 -12 -94 l-23 -28 -33 20 c-18 10 -37 29 -41 42 -18 47 73 96 109 60z
m-1804 -49 c40 -109 -15 -201 -94 -159 -41 22 -50 158 -14 195 9 8 32 15 53
15 36 0 38 -2 55 -51z m-1706 -65 c28 -19 28 -53 1 -88 -25 -31 -52 -33 -80
-5 -28 28 -23 79 11 96 33 16 41 16 68 -3z m602 -10 c18 -21 7 -57 -23 -74
-27 -14 -29 -14 -53 13 -29 34 -30 41 -5 66 21 21 62 18 81 -5z m-1086 -29 c8
-30 -11 -73 -37 -89 -21 -13 -31 -1 -49 57 -14 45 -4 57 48 57 26 0 33 -5 38
-25z m3487 -14 c23 -23 29 -38 29 -71 0 -77 -35 -103 -77 -57 -50 54 -71 141
-35 150 38 10 55 6 83 -22z m469 4 c7 -8 16 -13 20 -10 4 2 14 -1 23 -8 13 -9
15 -19 9 -42 -7 -25 -14 -30 -44 -33 -45 -4 -68 18 -68 63 0 31 5 37 41 44 4
0 12 -6 19 -14z m-1041 -21 c26 -33 27 -76 2 -98 -27 -24 -50 -15 -94 39 -39
47 -40 60 -3 75 41 17 74 11 95 -16z m2659 -26 c-4 -66 -27 -72 -46 -14 -16
49 -10 66 23 66 25 0 26 -2 23 -52z m-2329 -49 c39 -8 58 -20 91 -55 22 -24
44 -54 49 -67 11 -29 14 -112 12 -318 l-1 -167 -32 -48 c-46 -68 -95 -94 -181
-94 -78 0 -110 13 -155 65 -64 72 -66 80 -66 310 -1 116 2 222 7 237 16 60 93
124 167 139 51 10 55 10 109 -2z m2154 -26 c23 -16 53 -49 67 -73 24 -43 25
-55 28 -225 5 -229 -1 -272 -41 -332 -98 -146 -325 -112 -376 56 -7 23 -11
119 -11 247 0 234 8 267 75 318 52 40 74 46 148 42 56 -3 76 -9 110 -33z m877
8 c19 -10 49 -38 67 -64 40 -60 48 -128 39 -342 -9 -207 -30 -261 -118 -306
-73 -37 -166 -19 -224 43 -59 62 -59 65 -57 291 2 233 13 295 60 339 71 66
150 79 233 39z m-5652 -303 c1 -172 -1 -338 -5 -368 l-8 -55 -57 -3 -58 -3 0
272 0 271 -22 -6 c-62 -17 -100 -19 -109 -5 -16 26 -10 78 11 89 11 6 46 33
79 60 44 37 72 51 108 58 26 5 50 7 54 6 3 -2 6 -144 7 -316z m5247 -53 l0
-376 -50 3 -50 3 -7 50 c-3 28 -7 125 -7 216 -1 91 -4 193 -7 227 -6 56 -8 60
-28 53 -11 -5 -40 -11 -63 -15 l-43 -6 0 43 c0 51 7 61 83 117 53 39 95 56
152 59 20 1 20 -4 20 -374z m-3614 342 c33 -18 51 -37 71 -76 l28 -53 0 -217
0 -216 -28 -50 c-44 -82 -148 -118 -235 -82 -44 19 -103 87 -116 134 -14 49
-14 396 -1 445 33 116 171 173 281 115z m4237 -7 c28 -36 22 -67 -14 -76 -33
-8 -52 1 -66 31 -9 20 -8 31 2 50 18 33 49 31 78 -5z m-5431 -345 l1 -365 -58
0 -58 0 -7 93 c-4 50 -5 170 -3 265 l3 174 -33 -6 c-50 -8 -62 1 -62 44 0 35
6 44 71 99 58 51 76 61 107 61 l37 0 2 -365z m1706 344 c33 -17 77 -60 95 -94
13 -25 16 -67 17 -245 0 -203 -1 -217 -22 -256 -29 -54 -84 -101 -128 -110
-53 -10 -135 0 -178 21 -22 10 -51 36 -65 58 -26 40 -27 44 -30 224 -2 109 1
206 8 237 14 69 58 138 101 159 40 19 168 23 202 6z m-2505 -351 l2 -348 -53
0 -54 0 -7 57 c-4 31 -4 144 0 250 4 106 5 193 2 193 -3 0 -22 -7 -43 -16 -52
-21 -65 -13 -65 41 0 41 3 47 39 69 22 14 51 41 66 60 26 34 49 45 90 42 20
-1 20 -9 23 -348z m2182 322 c15 -21 20 -39 16 -56 -6 -21 -12 -25 -39 -22
-39 4 -57 42 -39 83 15 33 36 32 62 -5z m1605 0 c22 -11 56 -36 75 -55 l35
-36 0 -222 c-1 -196 -3 -226 -19 -257 -41 -78 -89 -110 -166 -110 -67 0 -111
20 -146 66 l-29 37 -3 201 c-5 279 10 335 102 377 53 24 100 24 151 -1z
m-4366 -16 c12 -15 21 -35 21 -45 0 -27 -36 -60 -57 -52 -28 10 -53 35 -53 53
0 22 38 70 55 70 7 0 23 -12 34 -26z m286 7 c20 -24 21 -38 10 -386 -4 -138
-12 -256 -17 -262 -11 -14 -96 -17 -115 -5 -15 10 -35 62 -23 62 5 0 16 7 24
16 13 13 16 43 17 162 0 81 4 179 8 217 5 39 7 72 5 74 -2 2 -30 -6 -61 -18
-93 -36 -101 -37 -109 -7 -4 16 1 39 13 63 37 77 203 133 248 84z m3735 -73
c0 -46 3 -194 7 -330 l6 -248 -50 0 -50 0 -7 61 c-3 34 -6 142 -6 240 0 99 -4
179 -9 179 -5 0 -25 -7 -45 -15 -46 -20 -56 -14 -56 35 0 34 4 42 30 55 16 8
52 36 80 60 31 28 60 45 75 45 25 0 25 -1 25 -82z m-2942 9 c24 -50 -16 -117
-52 -88 -19 16 -22 91 -4 109 19 19 41 10 56 -21z m16 -228 c31 -24 33 -52 6
-79 -27 -27 -65 -26 -84 2 -21 29 -20 40 5 72 25 31 38 32 73 5z m4196 -25 c0
-23 -4 -34 -12 -32 -33 11 -36 68 -3 68 11 0 15 -10 15 -36z m-3120 1 c-7 -9
-10 -19 -6 -23 4 -4 16 4 27 17 16 20 22 21 35 11 9 -8 14 -25 12 -44 -2 -25
-9 -32 -37 -40 -28 -8 -36 -7 -47 9 -15 20 -19 67 -7 78 3 4 13 7 21 7 12 0
12 -3 2 -15z m-702 -7 c10 -10 15 -10 21 1 16 26 43 4 39 -31 -3 -32 -4 -33
-55 -36 -49 -3 -53 -1 -59 23 -10 42 26 71 54 43z m-756 -29 c16 -22 17 -29 7
-52 -15 -34 -39 -35 -39 -2 0 14 -5 25 -11 25 -7 0 -10 -13 -7 -35 3 -27 1
-32 -9 -23 -16 13 -17 72 -2 99 13 26 37 21 61 -12z m-322 -75 c15 -39 12 -46
-17 -42 -31 3 -42 30 -23 53 18 22 29 18 40 -11z m4937 -46 c29 -27 30 -70 3
-108 -29 -41 -57 -44 -91 -10 -22 22 -29 38 -29 69 0 34 4 43 28 55 38 21 62
20 89 -6z m-4239 -10 c17 -17 15 -89 -4 -116 -31 -44 -64 -24 -78 47 -11 60
44 107 82 69z m460 -14 c36 -25 29 -65 -18 -108 -22 -20 -43 -36 -48 -36 -9 0
-42 79 -42 102 0 20 46 58 69 58 9 0 27 -7 39 -16z m671 -10 c25 -32 27 -61 4
-94 -53 -77 -111 -63 -128 31 -6 32 -3 39 25 62 40 34 73 34 99 1z m-1512 -6
c28 -26 30 -67 4 -99 -18 -22 -19 -22 -44 -6 -33 22 -44 70 -23 102 20 31 33
31 63 3z m3910 -13 c16 -34 16 -36 -3 -62 -36 -47 -52 -52 -80 -20 -29 34 -30
56 -3 91 30 38 65 35 86 -9z m1324 15 c10 -6 19 -21 19 -35 0 -29 -46 -85 -70
-85 -22 0 -60 45 -60 71 0 45 64 73 111 49z m-2093 -36 c24 -17 28 -44 11 -77
-22 -42 -48 -48 -79 -17 -24 24 -26 67 -3 92 20 22 42 23 71 2z m-1094 -45
c13 -20 13 -25 0 -51 -20 -38 -58 -36 -62 4 -4 32 13 68 33 68 8 0 21 -10 29
-21z m104 -164 c-2 -23 -9 -31 -26 -33 -53 -8 -69 43 -25 78 26 20 28 21 41 3
7 -10 12 -31 10 -48z m-2203 35 c26 -28 36 -95 18 -120 -16 -23 -60 -27 -88
-7 -22 17 -16 64 15 115 23 37 30 39 55 12z m383 -10 c34 -15 47 -29 65 -67
21 -45 22 -62 22 -278 0 -254 -6 -293 -56 -349 -73 -84 -232 -86 -316 -4 -58
56 -68 100 -68 303 1 216 12 276 61 334 76 89 180 110 292 61z m1292 8 c38
-41 21 -88 -33 -88 -23 0 -31 7 -43 36 -14 33 -14 38 2 55 23 25 49 24 74 -3z
m326 3 c56 -25 112 -93 119 -145 4 -22 5 -135 3 -251 l-3 -210 -31 -55 c-44
-77 -94 -103 -190 -98 -59 3 -77 8 -108 31 -91 70 -111 149 -104 401 5 143 9
180 25 217 19 42 86 108 123 122 34 12 127 6 166 -12z m1508 -14 c20 -16 48
-46 63 -68 33 -51 46 -163 41 -369 -4 -176 -14 -207 -87 -273 -46 -41 -83 -51
-180 -45 -51 3 -77 9 -103 27 -41 29 -75 75 -88 122 -13 44 -13 470 0 503 15
40 89 115 124 126 17 5 67 8 112 7 71 -2 85 -5 118 -30z m1303 -57 c28 -185
32 -228 33 -310 0 -47 -7 -116 -15 -155 -17 -81 -20 -181 -5 -190 23 -14 -5
-25 -66 -25 l-64 0 -1 68 c-1 37 0 170 1 295 l2 228 -34 -5 c-123 -19 -128
-19 -127 6 1 47 25 87 72 123 58 44 87 54 147 52 l44 -2 13 -85z m-4947 -305
l0 -385 -60 0 -60 0 0 208 c0 114 -3 243 -6 288 l-7 80 -43 -14 c-57 -18 -74
-6 -74 52 0 40 2 43 66 86 96 65 105 70 147 70 l37 0 0 -385z m1059 360 c14
-14 16 -56 16 -308 0 -161 -3 -304 -7 -319 -20 -70 -86 -108 -163 -94 -32 6
-35 9 -29 34 4 15 17 39 30 53 36 38 42 71 50 288 7 194 6 199 -15 220 -29 29
-67 27 -100 -7 -25 -24 -28 -37 -35 -121 -4 -52 -4 -137 0 -189 l7 -95 -58 6
c-31 3 -60 8 -63 11 -8 8 -2 244 8 312 5 32 17 84 28 114 15 46 27 61 68 89
l49 33 99 -6 c71 -4 104 -10 115 -21z m1618 -25 c82 -74 87 -92 91 -341 4
-200 2 -219 -16 -255 -50 -98 -150 -151 -233 -123 -68 24 -120 68 -148 128
-25 54 -26 64 -29 265 -4 243 1 269 75 336 l45 42 83 -4 c82 -4 85 -5 132 -48z
m153 29 c14 -25 6 -65 -15 -73 -18 -7 -65 10 -65 23 0 5 -3 16 -6 24 -15 39
66 64 86 26z m349 -116 c0 -76 -4 -242 -7 -369 -8 -257 -10 -264 -72 -264
l-37 0 -6 83 c-4 45 -4 182 0 305 3 122 3 222 -1 222 -4 0 -44 -9 -88 -21 -52
-13 -84 -17 -90 -11 -12 12 -1 84 15 106 21 27 185 83 250 85 l37 1 -1 -137z
m954 116 c15 -7 37 -27 48 -45 18 -30 21 -60 30 -285 6 -139 8 -271 4 -295
-12 -81 -70 -124 -167 -124 -107 0 -188 46 -208 118 -24 86 -3 479 29 565 10
25 50 59 92 77 30 13 135 6 172 -11z m989 -21 c29 -42 16 -82 -29 -86 -18 -2
-42 2 -54 8 -18 10 -21 18 -16 53 10 71 58 82 99 25z m326 -322 c-3 -207 -1
-371 4 -380 8 -14 0 -16 -61 -16 l-70 0 -6 55 c-4 30 -5 161 -3 291 l4 236
-30 -7 c-88 -20 -80 -23 -73 31 4 38 11 53 32 69 15 11 41 34 59 52 28 29 37
32 90 32 l59 1 -5 -364z m425 12 c-6 -390 -8 -398 -68 -424 -53 -22 -110 -17
-185 16 -38 17 -73 30 -79 30 -6 0 -17 11 -23 25 -16 35 18 145 45 145 26 0
42 -19 70 -86 21 -49 31 -61 65 -75 l39 -17 7 91 c3 49 6 175 6 280 l0 189
-27 -6 c-142 -31 -143 -31 -143 35 0 44 24 69 105 105 81 36 103 42 151 43
l42 1 -5 -352z m-6195 326 c12 -8 29 -28 37 -43 13 -26 12 -30 -9 -50 -46 -44
-126 -13 -112 44 7 25 39 65 54 65 4 0 18 -7 30 -16z m6369 -19 c29 -29 33
-37 23 -55 -21 -38 -130 -17 -130 26 0 18 44 64 61 64 6 0 27 -16 46 -35z
m-4343 -282 c3 -170 8 -336 10 -370 l4 -63 -59 0 -59 0 -2 243 c-1 133 -2 257
-3 275 0 25 -4 31 -15 26 -30 -12 -88 -16 -93 -7 -4 6 -9 29 -13 51 -5 34 -4
42 8 42 9 0 49 22 90 49 75 49 94 59 114 60 8 1 13 -87 18 -306z m4313 111
c21 -32 8 -58 -30 -62 -36 -4 -67 14 -67 41 0 52 67 66 97 21z m-3099 -60 c13
-9 22 -26 22 -41 0 -30 -37 -243 -49 -284 -4 -14 -4 -36 1 -49 5 -12 7 -25 4
-27 -9 -9 -47 43 -56 76 -13 48 -13 297 0 322 13 23 47 25 78 3z m2278 -9 c13
-20 14 -28 4 -40 -15 -18 -32 -19 -82 -4 -64 17 -46 69 24 69 29 0 41 -6 54
-25z m410 -26 c26 -52 -3 -139 -47 -139 -25 0 -49 53 -49 108 0 45 14 62 52
62 21 0 31 -8 44 -31z m-5798 -21 c-2 -28 -7 -33 -28 -33 -20 0 -26 6 -28 27
-3 26 -1 28 51 37 5 0 7 -14 5 -31z m310 16 c12 -8 22 -26 22 -38 0 -26 -27
-43 -44 -26 -5 5 -20 10 -33 10 -19 0 -23 5 -23 28 0 16 3 32 7 35 11 12 48 7
71 -9z m1371 -68 c4 -11 6 -101 3 -198 l-4 -178 -33 0 c-37 0 -37 1 -50 155
-3 39 -13 87 -22 107 -19 46 -11 81 26 119 32 32 68 30 80 -5z m3149 -15 c7
-75 -16 -100 -75 -80 -29 9 -33 15 -33 44 0 41 40 78 79 73 21 -2 27 -9 29
-37z m-3416 -15 c12 -17 9 -61 -4 -74 -30 -30 -98 -1 -98 42 0 26 9 40 35 54
20 11 52 1 67 -22z m3924 7 c-2 -16 -1 -20 1 -10 8 32 43 9 43 -29 0 -55 -19
-65 -70 -39 -35 18 -36 25 -14 71 20 42 45 46 40 7z m-512 -130 c3 -10 11 -25
17 -34 21 -28 2 -68 -46 -98 -47 -29 -48 -41 -7 -41 52 0 69 -65 25 -100 -34
-27 -52 -23 -79 17 -16 24 -23 55 -28 122 -10 119 -5 131 45 131 21 0 39 5 39
10 0 17 27 11 34 -7z m574 -97 c4 -34 -24 -84 -54 -98 -21 -10 -28 -8 -53 16
-34 32 -56 79 -48 100 3 8 25 21 49 29 40 13 45 13 73 -4 18 -11 31 -28 33
-43z m-3936 27 c35 -33 36 -67 3 -89 -45 -30 -125 3 -125 50 0 65 71 88 122
39z m3108 -9 c19 -58 8 -133 -24 -161 -36 -31 -53 -29 -76 10 -23 37 -25 67
-7 120 15 42 27 39 27 -8 0 -36 22 -71 38 -61 22 13 14 71 -13 96 -33 31 -32
40 9 40 31 0 36 -4 46 -36z m-3648 -11 c21 -19 25 -85 6 -101 -29 -22 -57 -23
-77 -3 -27 27 -27 61 0 95 24 30 45 33 71 9z m-594 -15 c15 -13 16 -60 0 -76
-32 -32 -113 14 -106 60 5 35 70 44 106 16z m2216 -52 c18 -38 18 -38 -3 -59
l-22 -22 -25 28 c-28 33 -31 59 -8 82 22 22 36 15 58 -29z m-534 -1 c11 -20
10 -28 -4 -50 -19 -29 -38 -32 -60 -9 -17 16 -20 41 -10 68 10 26 58 20 74 -9z
m-527 -98 c9 -4 17 -16 17 -28 0 -51 -63 -77 -102 -42 -25 22 -23 42 9 75 23
24 29 26 42 14 9 -7 24 -16 34 -19z m-257 -11 c60 -28 120 -95 135 -150 7 -24
9 -122 7 -260 -4 -239 -8 -259 -65 -326 -75 -90 -248 -95 -334 -9 -65 65 -73
112 -64 378 6 195 10 231 27 268 52 110 178 153 294 99z m-415 -23 c6 -17 7
-154 3 -400 l-7 -373 -60 0 -60 0 7 311 7 311 -50 -7 -51 -7 0 49 0 49 63 41
c92 60 132 67 148 26z m4360 16 c46 -16 107 -76 120 -119 7 -22 9 -136 7 -305
-3 -251 -4 -273 -24 -310 -26 -49 -62 -64 -162 -64 -111 -1 -171 31 -215 114
-20 37 -22 58 -25 289 -3 220 -2 253 14 287 41 93 177 144 285 108z m564 -8
c51 -23 101 -79 114 -128 17 -61 14 -449 -4 -509 -23 -76 -84 -132 -163 -149
-99 -21 -199 6 -246 67 -41 55 -49 125 -41 362 5 175 10 216 25 245 19 37 80
100 115 119 33 18 155 14 200 -7z m-363 -8 c35 -31 13 -78 -34 -71 -27 4 -35
36 -18 67 13 25 27 26 52 4z m-5256 -29 c19 -19 34 -40 34 -45 0 -14 -62 -49
-85 -49 -30 0 -45 19 -45 55 0 31 30 75 52 75 6 0 26 -16 44 -36z m365 3 c78
-59 82 -72 87 -306 5 -234 -4 -306 -46 -366 -36 -53 -82 -75 -155 -75 -70 0
-138 29 -172 75 -36 46 -45 114 -45 320 0 213 10 262 67 319 50 51 85 65 160
66 54 0 66 -4 104 -33z m1343 4 c46 -48 19 -84 -50 -67 -18 5 -24 13 -24 35 0
27 22 61 39 61 4 0 20 -13 35 -29z m676 -274 c0 -242 3 -296 15 -314 35 -50
126 -31 143 29 6 22 6 123 0 269 -5 131 -5 252 0 274 l8 40 50 -3 c27 -2 51
-6 54 -9 9 -9 18 -188 19 -388 1 -228 -5 -252 -77 -317 -32 -29 -51 -38 -96
-43 -155 -20 -219 42 -238 229 -16 158 1 488 26 513 8 8 79 20 89 16 4 -2 7
-136 7 -296z m1791 282 c36 -19 50 -101 56 -329 7 -246 2 -291 -34 -348 -40
-61 -93 -87 -174 -85 -107 2 -195 63 -218 150 -6 21 -11 135 -13 253 -3 190
-1 219 15 247 18 33 109 101 162 121 34 13 177 7 206 -9z m122 -17 l20 -34
-32 -31 -31 -32 6 31 c4 21 1 34 -10 43 -17 14 -21 42 -9 55 14 14 37 0 56
-32z m-2709 -9 c3 -21 6 -188 6 -372 l0 -334 -37 7 c-21 3 -46 6 -55 6 -17 0
-18 20 -18 286 0 266 -1 286 -17 280 -9 -4 -36 -10 -60 -13 l-43 -6 0 40 c0
39 3 42 68 84 37 24 83 47 102 50 19 3 38 7 41 8 4 0 9 -16 13 -36z m471 -65
c4 -57 5 -197 3 -313 -3 -189 -5 -214 -24 -250 -27 -52 -72 -75 -147 -75 -69
0 -101 15 -150 69 l-37 41 0 208 c1 222 6 251 54 321 45 64 125 97 248 100
l46 1 7 -102z m1144 71 c32 -58 -19 -111 -74 -75 -29 19 -32 51 -9 84 21 31
63 26 83 -9z m295 -59 c0 -47 -4 -201 -9 -343 -7 -234 -10 -261 -28 -283 -15
-19 -27 -24 -51 -22 l-31 3 -5 230 c-3 127 -2 257 1 290 3 33 5 63 3 66 -2 3
-35 -5 -74 -18 -39 -13 -75 -21 -80 -18 -12 8 8 65 34 93 47 53 138 93 201 89
l40 -2 -1 -85z m-714 60 c6 -11 17 -20 25 -20 22 0 18 -40 -7 -67 -26 -28 -52
-29 -78 -3 -26 26 -25 58 2 87 26 28 44 29 58 3z m962 3 c28 -25 22 -59 -14
-85 -54 -39 -82 -50 -124 -46 -36 3 -39 5 -42 36 -7 72 127 143 180 95z m813
-2 c45 -20 102 -79 111 -115 3 -12 4 -124 2 -248 l-3 -225 -28 -40 c-42 -60
-95 -86 -168 -81 -91 7 -150 62 -164 155 -11 76 5 443 21 475 25 49 104 95
169 97 11 0 38 -8 60 -18z m1323 -1 c29 -28 28 -63 -2 -80 -32 -17 -69 -6 -86
25 -12 23 -11 28 10 50 28 30 49 32 78 5z m-3699 -26 c12 -15 21 -41 21 -60 0
-27 -5 -35 -24 -40 -43 -10 -60 -1 -70 38 -19 75 30 116 73 62z m-797 -231
c33 -30 15 -71 -38 -87 -18 -6 -24 0 -38 35 -13 31 -14 44 -5 55 16 19 58 18
81 -3z m798 -13 c45 -45 4 -105 -49 -71 -7 5 -17 27 -21 50 -7 40 -7 41 21 41
16 0 38 -9 49 -20z m1504 -52 c22 -31 20 -80 -5 -112 -17 -22 -27 -26 -48 -21
-36 9 -51 26 -57 66 -12 70 72 121 110 67z m-2300 -104 c27 -27 17 -58 -27
-81 -29 -15 -32 -14 -49 7 -22 28 -23 48 -1 72 20 22 56 23 77 2z m2344 -127
c27 -41 28 -67 1 -101 -16 -20 -29 -26 -59 -26 -47 0 -60 18 -60 84 0 39 4 47
28 60 42 24 65 19 90 -17z m-2369 -18 c25 -9 31 -16 31 -40 0 -33 -31 -69 -59
-69 -43 0 -70 88 -33 109 22 13 23 13 61 0z m845 -11 c20 -28 20 -61 1 -98
-23 -45 -53 -49 -87 -10 -40 44 -36 86 12 111 45 24 55 24 74 -3z m-506 -50
c-2 -25 -8 -33 -23 -33 -15 0 -21 8 -23 33 -3 29 -1 32 23 32 24 0 26 -3 23
-32z m2675 -139 c22 -39 22 -56 -2 -69 -60 -32 -110 32 -64 82 24 26 46 22 66
-13z m-2006 -21 c57 -55 64 -81 70 -276 l5 -177 -30 -46 c-38 -60 -86 -83
-159 -77 -131 11 -171 100 -158 355 9 175 28 211 131 248 53 20 102 10 141
-27z m1483 16 c58 -49 16 -114 -57 -88 -34 11 -42 53 -18 90 20 31 36 30 75
-2z m-2590 -24 c0 -27 -24 -58 -33 -43 -9 15 -11 58 -4 70 13 20 37 3 37 -27z
m236 24 c14 -9 37 -38 52 -63 26 -45 27 -50 30 -234 3 -177 2 -189 -18 -222
-57 -92 -158 -106 -239 -32 -47 43 -52 74 -45 250 7 151 6 161 -10 148 -20
-17 -22 -15 -30 24 -7 35 -4 40 51 83 79 61 158 79 209 46z m221 -8 c15 -18
25 -66 41 -203 26 -210 27 -254 7 -293 -37 -72 -130 -68 -161 7 -18 42 -13 50
18 29 12 -9 35 -16 51 -16 l29 0 -7 88 c-7 106 -25 261 -31 285 -3 9 -11 17
-18 17 -7 0 -22 9 -34 20 -21 19 -21 23 -7 50 24 47 82 55 112 16z m281 -283
l2 -303 -50 0 c-37 0 -52 4 -57 16 -3 9 -2 111 3 226 l9 210 -52 -7 c-59 -7
-62 -3 -42 53 6 17 18 34 27 37 10 3 35 21 57 40 29 26 48 34 70 32 l30 -2 3
-302z m1716 291 c3 -9 6 -143 6 -299 0 -156 -3 -290 -6 -299 -8 -20 -93 -23
-95 -3 -1 6 0 117 1 246 l2 234 -31 -23 c-18 -12 -50 -24 -71 -27 l-40 -6 0
41 c0 36 5 45 45 79 25 21 60 46 78 56 41 22 103 23 111 1z m920 -242 c4 -139
5 -282 1 -317 l-6 -63 -42 5 c-23 3 -44 7 -45 9 -2 1 -6 105 -10 229 l-5 227
-27 -6 c-15 -3 -39 -8 -53 -11 -22 -6 -24 -4 -20 22 10 64 13 69 47 81 20 7
45 25 57 40 23 31 45 42 74 39 19 -2 20 -13 29 -255z m-2084 233 c10 -12 9
-15 -8 -15 -11 0 -22 -7 -26 -15 -7 -18 24 -21 42 -3 19 19 37 -4 23 -31 -9
-16 -21 -21 -54 -21 -47 0 -67 13 -67 44 0 45 63 74 90 41z m877 -7 c33 -38
35 -55 6 -78 -33 -25 -67 -26 -93 0 -27 27 -25 55 6 79 34 27 56 26 81 -1z
m-2916 -18 c12 -42 10 -434 -2 -468 -33 -95 -194 -93 -235 3 -24 57 -13 322
17 395 5 14 35 42 67 63 48 31 64 37 102 35 38 -3 45 -7 51 -28z m3704 -70 c0
-52 4 -203 9 -335 l8 -240 -24 -35 c-32 -48 -61 -60 -144 -60 -93 0 -163 33
-198 93 -48 83 -56 452 -11 497 11 10 29 21 40 22 11 2 26 7 34 12 8 5 16 4
21 -4 5 -7 10 1 14 23 8 41 70 103 113 113 16 3 33 7 38 9 6 2 30 3 55 2 l45
-2 0 -95z m990 77 c63 -36 82 -81 90 -211 3 -61 2 -179 -3 -262 -10 -172 -19
-197 -91 -251 -40 -31 -48 -33 -119 -33 -42 1 -115 6 -161 13 l-84 13 -3 269
c-2 149 -6 284 -9 302 l-6 32 -36 -25 c-56 -38 -67 -30 -71 49 l-3 67 28 0
c16 0 49 11 75 25 47 25 82 31 112 19 12 -5 16 -21 16 -64 0 -32 5 -71 11 -87
7 -17 12 -115 13 -252 3 -220 3 -224 25 -243 28 -22 98 -24 128 -3 34 24 43
90 43 304 0 168 -2 202 -16 215 -19 20 -45 20 -91 1 -48 -20 -63 -19 -63 7 0
13 23 44 58 80 67 66 92 72 157 35z m459 -6 c37 -39 29 -71 -18 -71 -55 0 -86
41 -60 79 21 29 45 26 78 -8z m-4563 -4 c65 -43 71 -70 64 -262 -7 -181 -15
-214 -59 -255 -39 -36 -139 -41 -180 -9 -49 39 -56 71 -56 265 l0 177 53 54
c49 48 58 53 99 53 30 0 56 -7 79 -23z m4413 10 c24 -18 51 -178 35 -208 -17
-33 -68 -22 -93 20 -18 31 -18 35 -3 61 10 15 17 34 17 42 -1 7 -9 -1 -18 -19
-19 -36 -35 -33 -51 10 -13 33 -4 56 35 86 31 24 53 26 78 8z m-4746 -13 c46
-32 52 -62 54 -251 1 -145 -1 -184 -14 -208 -54 -101 -192 -100 -234 1 -15 36
-18 233 -5 338 7 54 12 63 51 98 35 31 50 38 84 38 23 0 52 -7 64 -16z m-539
-20 c23 -29 17 -52 -21 -78 -26 -18 -53 -7 -64 26 -23 68 42 107 85 52z m4149
-108 c4 -32 -22 -66 -49 -66 -22 0 -52 42 -47 67 2 12 16 20 38 24 49 9 55 6
58 -25z m1106 -158 c35 -50 9 -118 -44 -118 -33 0 -80 35 -80 58 1 66 90 109
124 60z m-731 -12 c6 -15 -16 -39 -39 -42 -18 -3 -19 42 -1 49 22 10 35 7 40
-7z m337 -30 c0 -17 -7 -25 -25 -28 -22 -5 -25 -2 -25 23 0 24 4 29 25 29 20
0 25 -5 25 -24z m-707 -39 c29 -45 50 -130 40 -167 -8 -31 -13 -35 -44 -35
-49 0 -73 47 -64 130 10 93 36 121 68 72z m-3119 -103 c17 -45 -6 -74 -40 -49
-16 11 -16 17 -6 39 13 29 37 34 46 10z m3500 -9 c43 -28 9 -94 -50 -98 -27
-2 -29 1 -34 38 -8 60 -2 75 32 75 16 0 39 -7 52 -15z m687 -5 c13 -8 19 -21
19 -45 0 -33 -8 -41 -35 -35 -5 1 -23 2 -40 2 -16 -1 -33 5 -37 11 -12 18 -9
52 4 65 15 15 63 16 89 2z m-1633 -75 c18 -39 15 -53 -18 -70 -50 -26 -60 -21
-60 33 0 56 4 62 40 62 19 0 30 -7 38 -25z m-2656 -32 c34 -33 35 -53 4 -82
-61 -57 -165 29 -109 91 24 27 72 23 105 -9z m-262 -13 c47 -24 94 -79 109
-129 7 -24 11 -122 11 -258 0 -305 -16 -363 -116 -412 -37 -19 -66 -25 -119
-25 -91 0 -149 29 -184 94 -24 42 -26 58 -34 260 -10 274 -5 352 28 402 58 87
204 119 305 68z m654 8 c35 -50 8 -108 -50 -108 -39 0 -55 21 -47 65 11 62 67
87 97 43z m-1077 -10 c44 -50 36 -93 -21 -104 -44 -8 -90 14 -94 44 -2 12 6
35 18 52 26 37 67 40 97 8z m1308 -233 l0 -255 -47 0 -46 0 -7 106 c-4 59 -5
140 -1 180 4 41 4 74 1 74 -3 0 -22 -7 -41 -15 -20 -8 -40 -12 -45 -9 -11 6
-12 54 -1 71 16 26 138 103 162 103 l25 0 0 -255z m386 197 c45 -49 48 -55 54
-127 4 -42 5 -129 3 -193 -4 -106 -7 -121 -31 -159 -55 -86 -156 -106 -240
-47 -78 56 -82 66 -85 242 -2 86 -1 176 3 199 13 86 97 147 194 140 51 -4 58
-7 102 -55z m1497 26 c5 -7 10 -43 10 -79 1 -53 -3 -70 -19 -88 -24 -25 -32
-26 -53 -5 -19 19 -22 120 -4 159 12 27 48 34 66 13z m1774 -25 c23 -20 32
-67 18 -92 -11 -21 -53 -28 -76 -13 -31 20 -42 77 -23 114 8 15 17 18 37 13
15 -4 35 -13 44 -22z m-848 -16 c50 -28 95 -84 107 -133 12 -53 11 -469 -1
-534 -6 -29 -16 -65 -23 -79 -9 -18 -10 -40 -5 -71 11 -60 -18 -350 -37 -369
-7 -7 -30 -14 -51 -15 -36 -1 -38 1 -47 39 -5 22 -7 103 -5 180 5 155 16 197
58 205 14 3 -11 7 -55 10 -76 5 -80 6 -83 29 -5 31 21 51 64 51 57 0 59 8 62
291 3 249 3 258 -17 278 -29 29 -101 29 -127 0 -18 -20 -19 -40 -19 -336 l0
-315 -54 6 c-30 4 -61 12 -69 18 -11 10 -13 64 -10 312 3 281 5 304 24 347 50
107 180 146 288 86z m-2252 6 c57 -65 -7 -126 -76 -72 -30 24 -32 36 -10 67
19 27 64 29 86 5z m1563 -73 c3 -6 3 -142 -1 -304 l-7 -294 -41 6 c-23 2 -43
7 -46 9 -3 3 -5 99 -4 214 0 115 0 209 -2 209 -1 0 -26 -11 -56 -25 l-53 -25
-3 40 c-4 54 7 71 90 129 69 49 110 62 123 41z m1412 -27 c10 -47 9 -282 -1
-346 l-7 -48 -37 3 -37 3 4 153 c2 84 0 152 -5 152 -5 -1 -20 -7 -34 -15 -35
-20 -50 -18 -50 5 0 56 72 130 127 130 29 0 33 -4 40 -37z m-4147 -42 c12 -23
13 -71 2 -88 -4 -6 -24 -14 -45 -18 l-37 -7 0 47 c0 59 14 85 45 85 14 0 29
-8 35 -19z m3686 -58 c27 -115 13 -163 -43 -148 -40 10 -53 24 -53 56 0 19 9
37 25 51 17 15 25 32 25 54 0 84 25 77 46 -13z m229 48 c29 -46 21 -102 -20
-138 -46 -41 -95 1 -95 82 0 28 4 55 8 61 17 27 89 23 107 -5z m-925 -3 c38
-41 19 -80 -35 -71 -24 4 -42 0 -63 -16 -35 -25 -45 -26 -62 -7 -16 21 -3 40
56 81 58 40 76 42 104 13z m-3660 -68 c43 -43 10 -140 -43 -125 -28 9 -57 42
-57 67 0 10 7 32 15 48 19 36 55 40 85 10z m1066 -5 c34 -34 29 -73 -13 -97
-31 -19 -32 -19 -52 3 -25 27 -26 38 -7 84 18 41 38 44 72 10z m2625 -56 c21
-29 21 -34 8 -58 -20 -36 -80 -42 -103 -9 -30 42 -18 79 29 91 38 9 44 7 66
-24z m-2781 -33 c41 -20 92 -84 111 -141 11 -30 14 -106 14 -305 0 -293 -1
-301 -66 -375 -115 -131 -328 -83 -371 82 -16 64 -23 563 -8 609 7 21 38 65
69 97 l56 59 80 -4 c47 -3 94 -11 115 -22z m3648 -75 c21 -11 56 -37 78 -58
61 -60 69 -99 69 -358 0 -245 -3 -260 -76 -333 -46 -47 -85 -64 -141 -64 -86
0 -163 44 -201 115 -21 40 -22 52 -21 277 0 149 5 250 13 277 15 54 66 121
111 144 45 25 120 24 168 0z m-858 -378 c0 -256 -4 -354 -13 -372 -23 -45 -63
-66 -127 -66 -51 0 -63 4 -90 30 -48 46 -69 175 -50 300 6 39 15 131 19 205
13 210 41 248 184 249 l77 1 0 -347z m-2277 247 c49 -36 56 -45 66 -90 25
-118 33 -202 29 -326 -3 -125 -5 -134 -33 -179 -48 -77 -139 -111 -233 -85
-55 14 -119 72 -133 119 -7 23 -10 116 -7 256 2 181 6 225 20 250 35 65 90 95
174 95 55 0 66 -4 117 -40z m3387 -29 c24 -47 -1 -87 -48 -74 -22 5 -30 41
-16 77 9 22 51 20 64 -3z m-3181 -88 c32 -26 32 -71 0 -95 -25 -19 -28 -19
-58 -4 -25 13 -31 23 -31 48 0 59 47 85 89 51z m1767 -108 c24 -37 7 -71 -44
-85 -64 -17 -94 8 -73 63 20 52 89 64 117 22z m-2887 -71 c25 -32 27 -81 5
-112 -24 -35 -50 -28 -68 18 -19 47 -19 60 -6 94 12 34 43 33 69 0z m-323 -8
c21 -33 15 -65 -18 -89 -26 -19 -28 -19 -53 -3 -48 32 -54 89 -11 106 38 16
65 11 82 -14z m3729 -8 c25 -20 27 -25 21 -72 -7 -66 -23 -82 -62 -61 -16 8
-34 15 -40 15 -23 0 -45 38 -42 72 2 26 10 36 38 50 45 23 52 23 85 -4z
m-3520 -168 c0 -161 -1 -165 -21 -168 -26 -4 -30 6 -49 119 -7 48 -21 101 -29
118 -18 34 -21 55 -6 46 6 -3 10 -1 10 6 0 26 34 50 64 47 l31 -3 0 -165z
m-136 -14 c19 -20 22 -32 19 -92 -3 -62 -5 -69 -25 -72 -14 -2 -36 10 -62 34
-36 32 -41 42 -41 79 0 65 7 75 49 75 27 0 44 -7 60 -24z m3625 -67 c18 -14
26 -30 26 -53 0 -85 -87 -110 -125 -36 -41 79 30 143 99 89z m-3349 -29 c29
-30 29 -30 12 -65 -21 -44 -49 -46 -88 -4 -30 33 -39 83 -16 92 32 14 65 5 92
-23z m3750 -24 c16 -12 18 -19 10 -43 -12 -34 -48 -42 -76 -17 -19 17 -26 54
-12 67 11 12 58 8 78 -7z"/>
<path d="M5350 8261 c0 -17 18 -21 24 -6 3 9 0 15 -9 15 -8 0 -15 -4 -15 -9z"/>
<path d="M8420 8244 c0 -8 5 -12 10 -9 6 3 10 10 10 16 0 5 -4 9 -10 9 -5 0
-10 -7 -10 -16z"/>
<path d="M8080 8157 c-14 -7 -33 -28 -43 -47 -16 -31 -17 -61 -15 -263 l3
-229 28 -24 c33 -28 100 -33 134 -9 35 25 43 77 43 300 0 234 -3 245 -66 271
-41 17 -52 17 -84 1z"/>
<path d="M1239 8141 c-24 -19 -24 -23 -29 -248 -3 -125 -3 -243 1 -262 11 -51
64 -76 124 -60 63 18 65 26 65 297 l0 243 -26 24 c-34 32 -100 34 -135 6z"/>
<path d="M1801 8157 c-47 -27 -50 -47 -51 -278 0 -237 6 -271 51 -294 42 -22
75 -18 110 13 l32 28 1 242 1 241 -26 26 c-30 31 -85 41 -118 22z"/>
<path d="M2160 8245 c0 -10 7 -15 18 -13 21 4 19 22 -2 26 -10 2 -16 -3 -16
-13z"/>
<path d="M5084 8170 c-51 -20 -54 -38 -54 -281 l0 -227 26 -31 c48 -58 135
-47 170 21 14 26 15 62 12 242 -2 139 -8 218 -15 232 -14 24 -71 54 -100 53
-10 0 -28 -4 -39 -9z"/>
<path d="M4560 7785 c0 -8 5 -15 10 -15 6 0 10 7 10 15 0 8 -4 15 -10 15 -5 0
-10 -7 -10 -15z"/>
<path d="M8785 7719 c-4 -6 -5 -12 -2 -15 2 -3 7 2 10 11 7 17 1 20 -8 4z"/>
<path d="M7450 7694 c0 -8 5 -12 10 -9 6 3 10 10 10 16 0 5 -4 9 -10 9 -5 0
-10 -7 -10 -16z"/>
<path d="M5465 7624 c-11 -11 -15 -36 -15 -89 0 -63 3 -76 19 -85 29 -15 51
22 51 85 0 88 -21 122 -55 89z"/>
<path d="M4497 7455 c-4 -8 -2 -17 3 -20 6 -4 10 3 10 14 0 25 -6 27 -13 6z"/>
<path d="M2196 7524 c-4 -9 -4 -19 -1 -22 2 -3 7 3 11 12 4 9 4 19 1 22 -2 3
-7 -3 -11 -12z"/>
<path d="M4907 7493 c-4 -3 -7 -11 -7 -17 0 -6 5 -5 12 2 6 6 9 14 7 17 -3 3
-9 2 -12 -2z"/>
<path d="M5034 7297 l-29 -25 0 -212 0 -212 28 -24 c48 -41 114 -26 142 33 14
29 16 64 13 218 -3 183 -3 185 -29 210 -38 38 -88 43 -125 12z"/>
<path d="M8545 7244 c-25 -27 -25 -29 -25 -219 0 -179 1 -194 21 -219 28 -35
80 -36 114 -1 25 24 25 25 25 220 0 195 0 196 -25 220 -33 34 -78 33 -110 -1z"/>
<path d="M2509 7254 c-23 -25 -24 -31 -27 -210 l-4 -184 30 -30 c37 -37 71
-38 109 -6 l28 24 3 202 c4 229 3 229 -74 230 -31 0 -46 -6 -65 -26z"/>
<path d="M1232 7278 c2 -25 8 -33 23 -33 15 0 21 8 23 33 3 29 1 32 -23 32
-24 0 -26 -3 -23 -32z"/>
<path d="M1520 7252 c-29 -23 -39 -94 -39 -280 -1 -123 -1 -124 28 -153 32
-32 57 -36 86 -15 23 17 33 105 34 292 1 102 -2 125 -16 142 -27 31 -65 37
-93 14z"/>
<path d="M8146 7303 c-7 -7 13 -33 25 -33 5 0 9 6 9 14 0 15 -24 28 -34 19z"/>
<path d="M8870 7305 c0 -8 5 -15 10 -15 6 0 10 7 10 15 0 8 -4 15 -10 15 -5 0
-10 -7 -10 -15z"/>
<path d="M5532 7239 c-38 -14 -43 -40 -40 -235 l3 -187 26 -19 c24 -19 28 -19
56 -4 17 8 34 23 38 33 4 10 10 98 13 196 4 157 3 180 -12 196 -20 22 -55 31
-84 20z"/>
<path d="M1260 7045 c0 -8 4 -15 10 -15 5 0 7 7 4 15 -4 8 -8 15 -10 15 -2 0
-4 -7 -4 -15z"/>
<path d="M2840 6750 c0 -11 5 -20 10 -20 6 0 10 9 10 20 0 11 -4 20 -10 20 -5
0 -10 -9 -10 -20z"/>
<path d="M4400 6585 c-22 -23 -24 -35 -31 -217 -5 -106 -6 -202 -2 -213 7 -27
43 -65 61 -65 32 0 80 33 100 68 18 33 22 61 28 218 l7 180 -32 27 c-43 36
-98 37 -131 2z m86 -269 c8 -35 -2 -49 -27 -36 -26 15 -26 60 1 60 12 0 22 -9
26 -24z"/>
<path d="M4840 6628 c0 -9 -8 -19 -17 -21 -14 -4 -13 -5 4 -6 26 -1 35 10 22
29 -7 13 -9 12 -9 -2z"/>
<path d="M5405 6640 c3 -5 8 -10 11 -10 2 0 4 5 4 10 0 6 -5 10 -11 10 -5 0
-7 -4 -4 -10z"/>
<path d="M2680 6530 c-29 -29 -32 -50 -28 -249 3 -178 4 -183 27 -202 34 -27
79 -24 113 8 l28 27 0 189 c0 104 -4 197 -10 207 -10 18 -59 40 -91 40 -11 0
-28 -9 -39 -20z"/>
<path d="M1639 6521 c-29 -23 -37 -84 -38 -277 -1 -129 1 -144 20 -168 32 -41
89 -34 114 15 12 22 15 71 15 218 l0 190 -26 20 c-33 26 -55 26 -85 2z"/>
<path d="M2400 6592 c0 -18 12 -42 21 -42 14 0 10 26 -6 40 -9 8 -15 8 -15 2z"/>
<path d="M8379 6498 c-15 -28 -24 -253 -14 -333 11 -91 64 -123 106 -65 16 22
19 49 21 200 3 205 -1 220 -62 220 -31 0 -42 -5 -51 -22z"/>
<path d="M8640 6545 c0 -15 4 -24 10 -20 6 3 10 12 10 20 0 8 -4 17 -10 20 -6
4 -10 -5 -10 -20z"/>
<path d="M8150 6510 c0 -5 5 -10 11 -10 5 0 7 5 4 10 -3 6 -8 10 -11 10 -2 0
-4 -4 -4 -10z"/>
<path d="M4120 6365 c7 -9 15 -13 17 -11 7 7 -7 26 -19 26 -6 0 -6 -6 2 -15z"/>
<path d="M7137 6213 c-4 -20 -2 -43 3 -52 7 -11 9 -1 10 37 0 61 -5 67 -13 15z"/>
<path d="M4096 6145 c-4 -14 -1 -35 5 -47 l12 -22 18 23 c28 34 25 71 -5 71
-17 0 -26 -7 -30 -25z"/>
<path d="M2420 6070 c0 -11 5 -20 10 -20 6 0 10 9 10 20 0 11 -4 20 -10 20 -5
0 -10 -9 -10 -20z"/>
<path d="M5420 6022 c0 -15 28 -47 35 -40 8 8 -13 48 -25 48 -6 0 -10 -4 -10
-8z"/>
<path d="M4862 6005 c0 -16 2 -22 5 -12 2 9 2 23 0 30 -3 6 -5 -1 -5 -18z"/>
<path d="M5096 5819 l-26 -31 0 -199 c0 -199 0 -200 25 -224 26 -27 80 -34
116 -15 42 23 49 58 49 255 l0 187 -29 29 c-42 42 -99 41 -135 -2z m88 -95 c3
-9 6 -31 6 -50 0 -33 -2 -35 -27 -32 -30 3 -40 29 -29 74 7 27 40 33 50 8z"/>
<path d="M7231 5859 c-48 -19 -50 -30 -51 -261 0 -205 1 -219 20 -238 13 -13
33 -20 59 -20 32 0 44 6 65 31 l26 31 0 203 c0 197 -1 205 -22 228 -27 29 -63
39 -97 26z"/>
<path d="M8109 5834 c-24 -25 -24 -29 -27 -244 l-3 -218 27 -21 c49 -38 112
-19 133 41 7 18 11 113 11 228 0 192 0 197 -23 218 -33 31 -87 29 -118 -4z"/>
<path d="M4095 5825 c-25 -24 -25 -25 -25 -233 0 -205 0 -209 23 -230 13 -12
35 -22 49 -22 79 0 88 26 88 260 l0 192 -29 29 c-36 36 -73 37 -106 4z"/>
<path d="M8430 5905 c0 -8 5 -15 10 -15 6 0 10 7 10 15 0 8 -4 15 -10 15 -5 0
-10 -7 -10 -15z"/>
<path d="M4599 5801 l-39 -39 0 -190 c0 -185 1 -192 22 -212 35 -32 62 -34
106 -10 29 16 42 31 46 53 8 39 8 371 0 392 -7 18 -55 45 -80 45 -9 0 -34 -17
-55 -39z"/>
<path d="M4380 5860 c0 -5 5 -10 10 -10 6 0 10 5 10 10 0 6 -4 10 -10 10 -5 0
-10 -4 -10 -10z"/>
<path d="M5903 5773 c-15 -23 -18 -54 -21 -216 -4 -168 -2 -190 14 -208 26
-29 84 -26 115 7 23 25 24 31 27 207 3 219 0 231 -70 235 -42 3 -49 0 -65 -25z"/>
<path d="M1625 5830 c3 -5 8 -10 11 -10 2 0 4 5 4 10 0 6 -5 10 -11 10 -5 0
-7 -4 -4 -10z"/>
<path d="M2710 5769 c0 -5 5 -7 10 -4 6 3 10 8 10 11 0 2 -4 4 -10 4 -5 0 -10
-5 -10 -11z"/>
<path d="M2721 5581 c-9 -16 -10 -26 -2 -34 13 -13 25 12 19 40 -3 16 -5 15
-17 -6z"/>
<path d="M6934 5396 c-8 -21 -1 -49 14 -54 8 -2 12 8 12 32 0 36 -16 49 -26
22z"/>
<path d="M3155 5359 c-12 -19 5 -23 22 -6 16 16 16 17 1 17 -9 0 -20 -5 -23
-11z"/>
<path d="M3816 5365 c-8 -21 11 -58 27 -52 19 6 15 61 -4 65 -9 2 -19 -4 -23
-13z"/>
<path d="M2340 5346 c0 -20 5 -36 10 -36 6 0 10 13 10 29 0 17 -4 33 -10 36
-6 4 -10 -8 -10 -29z"/>
<path d="M6246 5363 c-9 -9 -7 -33 3 -33 12 0 22 28 12 34 -5 3 -11 3 -15 -1z"/>
<path d="M5470 5342 c0 -5 7 -15 15 -22 8 -7 15 -8 15 -2 0 5 -7 15 -15 22 -8
7 -15 8 -15 2z"/>
<path d="M2526 5028 c-38 -32 -45 -78 -46 -284 0 -158 2 -172 20 -192 40 -42
102 -41 146 4 l25 24 -3 210 c-3 196 -4 211 -24 230 -33 33 -85 37 -118 8z
m66 -200 c-9 -9 -12 -4 -11 23 0 32 1 33 11 11 8 -17 8 -26 0 -34z"/>
<path d="M3940 5130 c0 -5 5 -10 10 -10 6 0 10 5 10 10 0 6 -4 10 -10 10 -5 0
-10 -4 -10 -10z"/>
<path d="M4188 5065 c-40 -22 -48 -67 -48 -260 1 -243 11 -275 92 -275 29 0
45 7 63 26 25 27 25 27 25 245 0 119 -3 225 -6 234 -8 19 -55 45 -81 45 -10
-1 -30 -7 -45 -15z"/>
<path d="M5630 5042 l-30 -30 0 -212 c0 -239 5 -262 64 -278 48 -14 82 -4 111
30 25 29 25 30 25 243 0 208 -1 215 -23 240 -16 20 -35 28 -69 32 -42 5 -50 3
-78 -25z"/>
<path d="M4704 5060 c-50 -20 -54 -40 -54 -262 l0 -208 29 -32 c51 -57 129
-38 150 37 5 18 6 121 3 228 -5 184 -6 197 -26 216 -26 24 -73 34 -102 21z"/>
<path d="M4965 5140 c-7 -12 2 -30 16 -30 12 0 12 27 0 35 -5 3 -12 1 -16 -5z"/>
<path d="M6141 5006 c-20 -21 -21 -27 -11 -72 8 -32 9 -104 5 -209 -7 -149 -6
-162 12 -184 29 -36 89 -35 117 2 20 27 21 40 21 235 0 245 -2 252 -74 252
-37 0 -52 -5 -70 -24z"/>
<path d="M1820 5111 c0 -13 24 -31 42 -31 28 0 21 14 -12 27 -16 6 -30 8 -30
4z"/>
<path d="M6762 4780 c0 -14 2 -19 5 -12 2 6 2 18 0 25 -3 6 -5 1 -5 -13z"/>
<path d="M7330 4540 c0 -11 4 -20 9 -20 5 0 7 9 4 20 -3 11 -7 20 -9 20 -2 0
-4 -9 -4 -20z"/>
<path d="M3400 4553 c0 -22 18 -43 38 -43 9 0 12 9 10 28 -4 33 -48 47 -48 15z"/>
<path d="M2271 4524 c0 -11 3 -14 6 -6 3 7 2 16 -1 19 -3 4 -6 -2 -5 -13z"/>
<path d="M3068 4251 l-33 -29 -3 -222 c-4 -248 0 -269 54 -295 43 -20 93 -7
124 32 19 24 20 40 20 250 0 135 -4 232 -10 244 -13 24 -61 49 -94 49 -14 0
-40 -13 -58 -29z"/>
<path d="M7025 4234 c-25 -27 -25 -29 -26 -228 -1 -111 -1 -217 0 -236 3 -49
48 -90 100 -90 31 0 42 5 57 28 16 24 19 53 22 235 4 228 0 269 -29 298 -30
30 -94 26 -124 -7z"/>
<path d="M7572 4253 c-33 -13 -43 -63 -49 -251 -3 -104 -3 -205 1 -226 16 -85
107 -117 166 -58 36 37 42 86 38 310 l-3 174 -33 29 c-31 28 -82 38 -120 22z
m74 -248 c7 -29 -10 -55 -37 -55 -28 0 -38 49 -14 67 28 20 44 16 51 -12z"/>
<path d="M2327 4239 c-40 -23 -47 -68 -47 -283 0 -198 1 -206 23 -231 32 -38
115 -36 136 4 6 9 13 116 17 237 l7 219 -27 33 c-30 34 -72 42 -109 21z"/>
<path d="M6095 4220 c-46 -18 -49 -30 -49 -255 -1 -212 -1 -213 23 -239 35
-37 91 -36 123 3 23 27 25 38 31 198 8 205 2 268 -27 288 -22 16 -69 19 -101
5z m73 -125 c17 -38 15 -70 -7 -89 -15 -14 -24 -15 -40 -6 -39 20 -19 120 24
120 6 0 17 -11 23 -25z"/>
<path d="M4015 4213 c-72 -15 -71 -15 -79 -130 -3 -58 -6 -157 -6 -219 0 -105
1 -114 22 -128 31 -22 71 -20 94 5 17 19 19 42 23 250 3 251 7 236 -54 222z"/>
<path d="M6555 4205 c-25 -24 -25 -25 -25 -228 0 -192 1 -206 21 -231 16 -20
29 -26 59 -26 68 0 74 20 78 248 4 209 0 230 -45 251 -37 17 -62 13 -88 -14z"/>
<path d="M7961 4294 c0 -11 3 -14 6 -6 3 7 2 16 -1 19 -3 4 -6 -2 -5 -13z"/>
<path d="M3440 3865 c0 -8 2 -15 4 -15 2 0 6 7 10 15 3 8 1 15 -4 15 -6 0 -10
-7 -10 -15z"/>
<path d="M5803 3748 c-8 -9 -7 -17 3 -26 12 -11 15 -10 20 3 9 22 -10 40 -23
23z"/>
<path d="M3437 3734 c-4 -4 -7 -14 -7 -23 0 -11 3 -12 11 -4 6 6 10 16 7 23
-2 6 -7 8 -11 4z"/>
<path d="M4343 3436 l-28 -24 3 -169 c4 -180 8 -195 58 -207 68 -17 87 37 82
235 -3 128 -6 150 -22 168 -25 28 -58 27 -93 -3z"/>
<path d="M3507 3433 c-4 -3 -7 -91 -7 -194 0 -180 1 -189 21 -199 11 -6 30
-10 42 -8 35 5 46 57 46 218 1 167 -7 190 -63 190 -18 0 -36 -3 -39 -7z"/>
<path d="M2491 3406 c-20 -21 -23 -37 -28 -164 -5 -123 -4 -144 11 -167 14
-21 24 -26 49 -23 l32 3 9 162 c5 89 6 173 2 187 -8 34 -44 35 -75 2z"/>
<path d="M6139 3368 l-56 -21 -7 -75 c-12 -144 -7 -319 10 -361 18 -46 51 -71
93 -71 25 0 32 5 37 28 3 15 8 34 10 42 10 31 -9 480 -20 479 -6 0 -36 -10
-67 -21z"/>
<path d="M7745 3500 c3 -5 8 -10 11 -10 2 0 4 5 4 10 0 6 -5 10 -11 10 -5 0
-7 -4 -4 -10z"/>
<path d="M3084 3405 c-14 -21 -16 -49 -13 -181 4 -140 6 -157 23 -170 30 -21
72 -17 90 8 13 18 16 54 16 183 0 112 -4 165 -12 173 -7 7 -29 12 -50 12 -29
0 -41 -6 -54 -25z"/>
<path d="M2780 3410 c-18 -18 -20 -33 -20 -178 0 -141 2 -161 18 -175 26 -24
47 -21 71 9 19 24 21 40 21 176 0 84 -5 158 -10 169 -14 25 -54 25 -80 -1z"/>
<path d="M2304 3466 c-6 -17 2 -36 17 -36 12 0 12 37 -1 45 -6 3 -13 -1 -16
-9z"/>
<path d="M7550 3190 c0 -16 5 -30 10 -30 6 0 10 14 10 30 0 17 -4 30 -10 30
-5 0 -10 -13 -10 -30z"/>
<path d="M6467 3076 c-7 -18 16 -39 38 -34 14 2 13 7 -8 26 -20 19 -25 20 -30
8z"/>
<path d="M2856 2781 c-38 -42 -45 -89 -46 -298 0 -256 14 -303 94 -303 35 0
84 45 96 88 12 46 13 393 0 447 -17 74 -102 113 -144 66z"/>
<path d="M4116 2789 l-26 -20 0 -164 c0 -143 2 -166 18 -186 12 -14 30 -22 50
-22 66 0 82 43 82 229 0 118 -2 134 -21 158 -25 32 -66 34 -103 5z"/>
<path d="M4410 2805 c7 -9 15 -13 17 -11 7 7 -7 26 -19 26 -6 0 -6 -6 2 -15z"/>
<path d="M6925 2610 c3 -5 11 -10 16 -10 6 0 7 5 4 10 -3 6 -11 10 -16 10 -6
0 -7 -4 -4 -10z"/>
<path d="M7130 2675 c0 -25 30 -76 40 -70 6 4 10 18 9 33 0 24 -1 25 -9 7 -7
-18 -9 -16 -15 13 -8 33 -25 45 -25 17z"/>
<path d="M3392 2407 c-53 -30 -57 -63 -53 -433 1 -146 2 -152 26 -178 34 -37
87 -36 126 3 l29 29 0 266 c0 260 0 265 -22 290 -27 31 -74 41 -106 23z"/>
<path d="M7048 2311 l-33 -29 -3 -222 c-4 -247 -1 -263 56 -287 43 -18 78 -8
102 31 23 38 25 74 22 314 -2 169 -3 173 -27 197 -33 34 -76 33 -117 -4z"/>
<path d="M6155 2183 c-3 -49 -13 -155 -21 -237 -8 -82 -14 -155 -14 -163 0
-14 66 -50 75 -41 3 3 8 123 12 267 l6 261 -26 0 c-25 0 -25 -2 -32 -87z"/>
<path d="M3882 2253 c-32 -13 -39 -56 -35 -243 2 -102 5 -195 8 -206 3 -12 20
-29 40 -38 30 -15 38 -15 69 -2 48 20 52 45 46 269 -5 183 -6 189 -29 208 -22
18 -70 24 -99 12z"/>
<path d="M4196 2182 c-8 -13 3 -42 15 -42 11 0 11 21 0 39 -5 8 -11 9 -15 3z"/>
<path d="M5955 2089 c-4 -6 -5 -13 -2 -16 7 -7 27 6 27 18 0 12 -17 12 -25 -2z"/>
<path d="M3083 1965 c0 -22 2 -30 4 -17 2 12 2 30 0 40 -3 9 -5 -1 -4 -23z"/>
<path d="M2734 2016 c-6 -17 12 -56 26 -56 6 0 10 13 10 29 0 31 -27 51 -36
27z"/>
<path d="M6484 1985 c-10 -25 7 -40 23 -20 7 11 13 22 13 27 0 14 -30 9 -36
-7z"/>
<path d="M6518 1903 c7 -3 16 -2 19 1 4 3 -2 6 -13 5 -11 0 -14 -3 -6 -6z"/>
<path d="M2815 1797 c-4 -10 -5 -21 -1 -24 10 -10 18 4 13 24 -4 17 -4 17 -12
0z"/>
<path d="M3121 1733 c7 -12 15 -20 18 -17 3 2 -3 12 -13 22 -17 16 -18 16 -5
-5z"/>
</g>
</svg>
